<svg class="icon" viewBox="0 0 1024 1024" xmlns="http://www.w3.org/2000/svg" width="200" height="200"><defs><style/></defs><path d="M534.377 64.118c302.341 0 317.21 288.722 317.21 288.722 45.863 60.731 21.085 115.246 21.085 115.246 147.456 231.736 52.05 298.684 26.027 303.62-26.027 4.938-50.83-28.518-50.83-28.518s-8.65 33.43-29.74 50.824c76.854 35.898 63.201 80.536 63.201 80.536s-16.117 134.766-335.798 49.576l-27.27-4.964c-306.407 110.595-344.486-38.423-344.486-38.423s-12.401-61.926 47.079-85.505c-34.708-21.084-47.079-65.67-47.079-65.67s-30.993 50.797-71.88 32.213c-40.896-18.588-65.67-183.38 87.973-302.34 0 0-22.28-70.637 28.517-112.779 0 0 13.65-282.538 315.991-282.538M265.465 362.773c-66.916 56.987-22.304 114.025-22.304 114.025C95.705 567.268 121.73 713.473 121.73 713.473s23.523-11.79 40.252-45.858c16.73-34.07 42.754 5.575 42.754 5.575s16.118 78.07 65.463 108.652c49.35 30.582-2.174 50.096-2.174 50.096s-54.318.789-49.64 37.673c4.674 36.885 179.872 83.066 285.004 1.247l55.758 7.438c183.416 63.783 273.856 4.298 279.896-7.112 6.042-11.412-27.705-33.81-58.724-46.79-31.023-12.986-39.004-26.666-11.563-44.936 27.445-18.262 38.282-54.513 54.343-92.036 16.055-37.525 40.25-19.197 43.362-8.65 3.106 10.541 26.021 45.826 26.021 45.826s59.744-63.313-64.447-250.298c0 0 26.952-56.026-18.591-101.592 0 0-11.124-262.725-280.063-262.725-268.939-.001-263.916 252.79-263.916 252.79"/></svg>