<svg width="30" height="30" viewBox="0 0 38 38" xmlns="http://www.w3.org/2000/svg"><title>Shape Copy</title><path d="M142.135 26.158Zm-108.718 1.06c-.01 1.577-.83 1.928-.83 1.928s-14.135 8.169-15.054 8.68c-.91.391-1.52 0-1.52 0S1.224 29.248.684 28.871c-.54-.377-.553-.965-.553-.965s.015-16.986 0-17.773c-.015-.786.967-1.377.967-1.377L15.876.213c.91-.48 1.795 0 1.795 0s13.056 7.59 14.502 8.405c1.419.674 1.244 2.066 1.244 2.066s.008 15.068 0 16.534Zm-5.901-17.049C24.49 8.427 17.362 4.297 17.362 4.297s-.696-.376-1.41 0L4.349 10.982s-.771.463-.76 1.078c.012.616 0 13.91 0 13.91s.01.46.434.755 12.037 7.008 12.037 7.008.478.306 1.193 0c.722-.4 11.82-6.793 11.82-6.793s.643-.275.65-1.51c.003-.355.004-1.737.004-3.472L16.66 29.875v-3.029c0-1.244.963-2.065.963-2.065l11.558-6.964c.436-.456.526-1.185.544-1.461v-3.07L16.66 21.2v-3.166c0-1.245.826-1.79.826-1.79l10.03-6.076Z" fill="#409EFF" fill-rule="evenodd"/></svg>
